<?xml version="1.0" encoding="UTF-8"?>
<svg xmlns="http://www.w3.org/2000/svg" width="77" height="77" viewBox="0 0 77 77" fill="none">
  <rect x="0.215408" width="76.0826" height="76.0826" rx="38.0413" fill="#EBF3E6"></rect>
  <path d="M34.6405 38.2905C31.2615 38.2905 28.5128 41.0102 28.5128 44.3531C28.5128 47.696 31.2615 50.4157 34.6405 50.4157C38.0177 50.4157 40.7655 47.696 40.7655 44.3531C40.765 41.0102 38.0177 38.2905 34.6405 38.2905ZM34.6405 49.1027C31.993 49.1027 29.8396 46.9721 29.8396 44.3531C29.8396 41.7345 31.9935 39.6035 34.6405 39.6035C37.2861 39.6035 39.4387 41.7341 39.4387 44.3531C39.4382 46.9721 37.2861 49.1027 34.6405 49.1027Z" fill="#646C5E"></path>
  <path d="M21.7545 38.2905C21.3878 38.2905 21.091 38.5842 21.091 38.947V49.7592C21.091 50.122 21.3878 50.4157 21.7545 50.4157C22.1211 50.4157 22.4179 50.122 22.4179 49.7592V38.947C22.4179 38.5846 22.1211 38.2905 21.7545 38.2905Z" fill="#646C5E"></path>
  <path d="M47.3169 38.2905C46.9502 38.2905 46.6535 38.5842 46.6535 38.947V49.7592C46.6535 50.122 46.9502 50.4157 47.3169 50.4157C47.6835 50.4157 47.9803 50.122 47.9803 49.7592V38.947C47.9803 38.5846 47.6831 38.2905 47.3169 38.2905Z" fill="#646C5E"></path>
  <path d="M58.1308 26.8945H25.9114C25.5447 26.8945 25.2479 27.1882 25.2479 27.551V30.767H22.3029C21.9362 30.767 21.6395 31.0607 21.6395 31.4235V35.0001H18.3826C18.0159 35.0001 17.7192 35.2938 17.7192 35.6566V53.0486C17.7192 53.4115 18.0159 53.7051 18.3826 53.7051H50.602C50.9687 53.7051 51.2655 53.4115 51.2655 53.0486V49.472H54.5223C54.889 49.472 55.1858 49.1783 55.1858 48.8155V45.5978H58.1308C58.4975 45.5978 58.7942 45.3041 58.7942 44.9413V27.5506C58.7942 27.1886 58.497 26.8945 58.1308 26.8945ZM49.9386 52.3926H19.046V36.3136H49.9386V52.3926ZM51.2655 48.1595V35.6571C51.2655 35.2942 50.9687 35.0006 50.602 35.0006H22.9663V32.0804H53.8589V48.1595H51.2655ZM57.4674 44.2852H55.1858V31.4235C55.1858 31.0607 54.889 30.767 54.5223 30.767H26.5748V28.2075H57.4674V44.2852Z" fill="#646C5E"></path>
</svg>
