<?xml version="1.0" encoding="UTF-8"?>
<svg xmlns="http://www.w3.org/2000/svg" width="77" height="77" viewBox="0 0 77 77" fill="none">
  <rect x="0.905151" width="76.0826" height="76.0826" rx="38.0413" fill="#E7F2F5"></rect>
  <path d="M52.494 25.0606C53.8033 26.7264 54.8124 28.6188 55.4736 30.6489L53.2021 31.0637L58.0296 35.3007L59.442 32.6002L59.5106 32.4673L60.9877 29.642L58.777 30.0447C57.8389 27.4959 56.4287 25.1577 54.6243 23.1596C52.2692 20.5441 49.3003 18.5924 46.001 17.4907L45.2713 19.575C48.096 20.7396 50.5828 22.6283 52.494 25.0606Z" fill="#1D75B8"></path>
  <path d="M25.2576 48.8552C23.9994 47.1483 23.0483 45.2245 22.449 43.1743L24.7321 42.8323L20.0356 38.4429L18.5419 41.0969L18.4692 41.2275L16.907 44.0042L19.1289 43.6724C19.9892 46.25 21.3277 48.6322 23.0706 50.6871C25.3451 53.3766 28.2533 55.4225 31.5175 56.6292L32.3102 54.5693C29.5222 53.3148 27.094 51.3475 25.2576 48.8552Z" fill="#1D75B8"></path>
  <path d="M29.4468 15.0444H23.4166C18.6791 15.0444 14.8387 18.9871 14.8387 23.8505V23.8505C14.8387 28.714 18.6791 32.6566 23.4166 32.6566H29.4468C34.1843 32.6566 38.0247 28.714 38.0247 23.8505V23.8505C38.0247 18.9871 34.1843 15.0444 29.4468 15.0444Z" fill="#2D3E50"></path>
  <path d="M54.4752 41.4614H48.4455C46.1702 41.4614 43.9881 42.3893 42.3792 44.041C40.7703 45.6927 39.8665 47.9328 39.8665 50.2687C39.8665 52.6045 40.7703 54.8447 42.3792 56.4963C43.9881 58.148 46.1702 59.0759 48.4455 59.0759H54.4752C56.7505 59.0759 58.9326 58.148 60.5415 56.4963C62.1504 54.8447 63.0542 52.6045 63.0542 50.2687C63.0542 47.9328 62.1504 45.6927 60.5415 44.041C58.9326 42.3893 56.7505 41.4614 54.4752 41.4614ZM54.4752 56.7444H48.4455C46.7725 56.7444 45.1681 56.0622 43.9851 54.8477C42.8021 53.6333 42.1375 51.9861 42.1375 50.2687C42.1375 48.5512 42.8021 46.9041 43.9851 45.6896C45.1681 44.4752 46.7725 43.7929 48.4455 43.7929H54.4752C56.1482 43.7929 57.7526 44.4752 58.9356 45.6896C60.1186 46.9041 60.7832 48.5512 60.7832 50.2687C60.7832 51.9861 60.1186 53.6333 58.9356 54.8477C57.7526 56.0622 56.1482 56.7444 54.4752 56.7444Z" fill="#2D3E50"></path>
</svg>
