<?xml version="1.0" encoding="UTF-8"?>
<svg xmlns="http://www.w3.org/2000/svg" width="77" height="77" viewBox="0 0 77 77" fill="none">
  <rect width="76.0826" height="76.0826" rx="38.0413" fill="#FDEAF0"></rect>
  <path d="M59.7058 38.1055L56.1706 30.4094C55.8775 29.7734 55.406 29.2342 54.8122 28.8558C54.2184 28.4774 53.5273 28.2756 52.821 28.2747H46.3174V25.5433C46.3166 24.8192 46.0255 24.1249 45.508 23.6129C44.9906 23.1008 44.289 22.8128 43.5572 22.812H20.5559C19.8241 22.8128 19.1225 23.1008 18.605 23.6129C18.0876 24.1249 17.7965 24.8192 17.7957 25.5433V36.4686C17.7945 36.5889 17.8175 36.7083 17.8632 36.8197C17.9089 36.9312 17.9765 37.0326 18.062 37.1181C18.1476 37.2036 18.2494 37.2714 18.3616 37.3178C18.4738 37.3641 18.5942 37.3879 18.7157 37.3879C18.8373 37.3879 18.9577 37.3641 19.0699 37.3178C19.1821 37.2714 19.2839 37.2036 19.3695 37.1181C19.455 37.0326 19.5226 36.9312 19.5683 36.8197C19.614 36.7083 19.637 36.5889 19.6358 36.4686V25.5433C19.6361 25.3019 19.7331 25.0705 19.9056 24.8998C20.0781 24.7291 20.3119 24.6331 20.5559 24.6329H43.5572C43.8011 24.6331 44.035 24.7291 44.2075 24.8998C44.38 25.0705 44.477 25.3019 44.4773 25.5433V40.1104C44.4769 40.3518 44.3799 40.5831 44.2074 40.7538C44.0349 40.9245 43.8011 41.0205 43.5572 41.0208H32.5166C32.2741 41.0231 32.0424 41.1201 31.8717 41.2905C31.7011 41.461 31.6054 41.6913 31.6054 41.9312C31.6054 42.1712 31.7011 42.4014 31.8717 42.5719C32.0424 42.7424 32.2741 42.8393 32.5166 42.8416H43.5572C44.289 42.8409 44.9906 42.5528 45.508 42.0408C46.0255 41.5287 46.3166 40.8345 46.3174 40.1103V30.0955H52.821C53.1742 30.096 53.5198 30.1968 53.8168 30.386C54.1138 30.5753 54.3496 30.8449 54.4962 31.1629L54.8424 31.9164H50.9178C50.4299 31.9168 49.9621 32.1088 49.6171 32.4502C49.2721 32.7916 49.078 33.2545 49.0775 33.7373V37.3791C49.078 37.8619 49.272 38.3247 49.617 38.6661C49.962 39.0075 50.4297 39.1995 50.9176 39.1999H58.1578C58.2369 39.4555 58.2774 39.7213 58.278 39.9886V43.7522C58.2776 43.9935 58.1806 44.2249 58.0082 44.3956C57.8357 44.5662 57.6019 44.6622 57.358 44.6626H54.505C54.2929 43.6345 53.7284 42.7105 52.9071 42.0469C52.0857 41.3833 51.0579 41.0208 49.9975 41.0208C48.9371 41.0208 47.9093 41.3833 47.088 42.0469C46.2666 42.7105 45.7021 43.6345 45.49 44.6626H30.5837C30.3716 43.6345 29.8071 42.7105 28.9857 42.0469C28.1644 41.3833 27.1365 41.0208 26.0762 41.0208C25.0158 41.0208 23.988 41.3833 23.1666 42.0469C22.3453 42.7105 21.7808 43.6345 21.5687 44.6626H20.5559C20.3119 44.6623 20.0781 44.5662 19.9056 44.3956C19.7331 44.2249 19.6361 43.9935 19.6358 43.7521V42.8417C19.8782 42.8394 20.11 42.7425 20.2806 42.572C20.4512 42.4015 20.547 42.1713 20.547 41.9313C20.547 41.6914 20.4512 41.4611 20.2806 41.2906C20.11 41.1201 19.8782 41.0232 19.6358 41.0209H16.8756C16.6332 41.0232 16.4014 41.1201 16.2308 41.2906C16.0602 41.4611 15.9644 41.6914 15.9644 41.9313C15.9644 42.1713 16.0602 42.4015 16.2308 42.572C16.4014 42.7425 16.6332 42.8394 16.8756 42.8417H17.7957V43.7522C17.7965 44.4764 18.0876 45.1706 18.605 45.6827C19.1225 46.1947 19.8241 46.4827 20.5559 46.4835H21.5688C21.7809 47.5116 22.3454 48.4356 23.1667 49.0992C23.9881 49.7628 25.0159 50.1253 26.0763 50.1253C27.1366 50.1253 28.1644 49.7628 28.9858 49.0992C29.8072 48.4356 30.3717 47.5116 30.5838 46.4835H45.4901C45.7022 47.5116 46.2667 48.4356 47.0881 49.0992C47.9094 49.7628 48.9372 50.1253 49.9976 50.1253C51.058 50.1253 52.0858 49.7628 52.9071 49.0992C53.7285 48.4356 54.293 47.5116 54.5051 46.4835H57.358C58.0898 46.4827 58.7914 46.1947 59.3088 45.6827C59.8263 45.1706 60.1174 44.4764 60.1182 43.7522V39.9886C60.1192 39.3388 59.9786 38.6965 59.7058 38.1055ZM26.0762 48.3044C25.5303 48.3044 24.9966 48.1442 24.5427 47.8441C24.0888 47.5439 23.735 47.1174 23.5261 46.6183C23.3172 46.1192 23.2626 45.57 23.3691 45.0402C23.4756 44.5104 23.7384 44.0237 24.1244 43.6417C24.5105 43.2597 25.0023 42.9996 25.5377 42.8942C26.0731 42.7888 26.6281 42.8429 27.1324 43.0496C27.6368 43.2564 28.0679 43.6065 28.3712 44.0556C28.6745 44.5048 28.8363 45.0329 28.8363 45.5731C28.8355 46.2972 28.5445 46.9915 28.027 47.5035C27.5096 48.0156 26.808 48.3036 26.0762 48.3044ZM49.9975 48.3044C49.4516 48.3044 48.918 48.1442 48.4641 47.8441C48.0101 47.5439 47.6564 47.1174 47.4475 46.6183C47.2386 46.1192 47.1839 45.57 47.2904 45.0402C47.3969 44.5104 47.6598 44.0237 48.0458 43.6417C48.4318 43.2597 48.9236 42.9996 49.459 42.8942C49.9945 42.7888 50.5494 42.8429 51.0538 43.0496C51.5581 43.2564 51.9892 43.6065 52.2925 44.0556C52.5958 44.5048 52.7577 45.0329 52.7577 45.5731C52.7569 46.2972 52.4658 46.9914 51.9484 47.5035C51.431 48.0155 50.7294 48.3036 49.9976 48.3044H49.9975ZM50.9176 33.7373H55.6784L57.3511 37.3791H50.9176V33.7373Z" fill="#876772"></path>
  <path d="M16.8758 40.1073H21.476C21.7185 40.105 21.9502 40.008 22.1208 39.8374C22.2915 39.6669 22.3872 39.4365 22.3872 39.1965C22.3872 38.9564 22.2915 38.7261 22.1208 38.5555C21.9502 38.385 21.7185 38.288 21.476 38.2856H16.8758C16.6333 38.288 16.4016 38.385 16.2309 38.5555C16.0603 38.7261 15.9646 38.9564 15.9646 39.1965C15.9646 39.4365 16.0603 39.6669 16.2309 39.8374C16.4016 40.008 16.6333 40.105 16.8758 40.1073Z" fill="#876772"></path>
</svg>
