<?xml version="1.0" encoding="UTF-8"?>
<svg xmlns="http://www.w3.org/2000/svg" width="77" height="77" viewBox="0 0 77 77" fill="none">
  <rect x="0.266724" width="76.0826" height="76.0826" rx="38.0413" fill="#F0D8F8"></rect>
  <path fill-rule="evenodd" clip-rule="evenodd" d="M38.307 60.866C38.2512 60.866 38.1953 60.8558 38.1427 60.8384C17.0508 53.5744 19.6481 29.026 20.0115 26.2519C20.049 25.9799 20.2045 25.7774 20.4834 25.7573C33.1477 24.8303 37.856 18.6283 37.9016 18.566C38.1004 18.2951 38.5116 18.2926 38.716 18.5695C38.7613 18.6318 43.4699 24.8338 56.1342 25.7608C56.4138 25.7807 56.5691 25.9784 56.6026 26.2519C56.9695 29.026 59.5668 53.5746 38.4714 60.8384C38.419 60.8558 38.3629 60.866 38.307 60.866ZM20.9694 26.7188C20.5151 30.6344 18.8231 52.9969 38.307 59.8387C57.7945 52.9969 56.1027 30.6344 55.6482 26.7188C44.7283 25.8158 39.6948 21.1808 38.307 19.6417C36.9193 21.1808 31.8858 25.8158 20.9694 26.7188Z" fill="#6A5970"></path>
  <path fill-rule="evenodd" clip-rule="evenodd" d="M35.2343 44.6881C35.1049 44.6881 34.9756 44.6398 34.8777 44.5429L31.7738 41.4714C31.3072 41.0096 32.0136 40.3016 32.4868 40.7658L35.2343 43.4847L44.1303 34.6816C44.5969 34.2198 45.3126 34.9189 44.8433 35.3871L35.5871 44.5431C35.4892 44.64 35.3599 44.6883 35.234 44.6883L35.2343 44.6881Z" fill="#6A5970"></path>
  <path fill-rule="evenodd" clip-rule="evenodd" d="M38.307 56.6386C38.2511 56.6386 38.1952 56.6284 38.1426 56.611C21.2114 50.9033 23.4103 31.0223 23.6399 28.9251C23.6678 28.6865 23.8636 28.4995 24.1047 28.4788C34.1332 27.7456 37.863 22.8441 37.898 22.7923C38.0848 22.5273 38.5101 22.5149 38.7089 22.7923C38.7439 22.8406 42.477 27.7421 52.5022 28.4753C52.7826 28.4952 52.9301 28.69 52.9706 28.9595C53.2608 31.1767 55.3336 50.7962 38.4643 56.6072C38.419 56.6279 38.3629 56.6386 38.307 56.6386ZM24.594 29.4404C24.22 32.7609 23.028 50.2219 38.307 55.611C53.5824 50.2219 52.3938 32.7574 52.0233 29.4404C43.5469 28.7174 39.5233 25.172 38.307 23.8612C37.0906 25.172 33.0671 28.7176 24.594 29.4404Z" fill="#6A5970"></path>
  <path fill-rule="evenodd" clip-rule="evenodd" d="M38.307 52.6436C37.7455 52.6436 37.6086 51.8587 38.1426 51.6751C43.5536 49.8107 46.9442 45.7914 48.2167 39.7208C48.3503 39.0793 49.3364 39.279 49.2025 39.9216C48.2763 44.3456 45.6614 50.1395 38.4748 52.6128C38.419 52.6334 38.3631 52.6436 38.307 52.6436Z" fill="#6A5970"></path>
</svg>
